<?xml version="1.0" standalone="no"?>
<!DOCTYPE svg PUBLIC "-//W3C//DTD SVG 20010904//EN"
 "http://www.w3.org/TR/2001/REC-SVG-20010904/DTD/svg10.dtd">
<svg version="1.0" xmlns="http://www.w3.org/2000/svg"
 width="700.000000pt" height="700.000000pt" viewBox="0 0 700.000000 700.000000"
 preserveAspectRatio="xMidYMid meet">
<metadata>
Created by potrace 1.11, written by Peter Selinger 2001-2013
</metadata>
<g transform="translate(0.000000,700.000000) scale(0.100000,-0.100000)"
fill="#000000" stroke="none">
<path d="M3374 6253 c-61 -93 -281 -424 -489 -738 -208 -313 -500 -754 -650
-980 -149 -225 -419 -633 -600 -905 -1172 -1767 -1305 -1968 -1311 -1984 -3
-7 2 -18 10 -25 17 -14 23 -12 259 121 89 50 187 105 217 121 30 17 213 118
405 225 193 107 379 210 415 230 36 20 238 132 450 250 212 118 414 230 450
249 36 20 79 43 95 53 17 10 53 30 80 45 132 73 648 359 728 405 58 33 59 33
94 16 20 -9 203 -109 407 -223 204 -113 394 -218 421 -233 28 -15 210 -116
405 -225 195 -109 380 -211 410 -228 30 -16 91 -50 135 -75 44 -25 105 -59
135 -75 30 -17 89 -49 130 -72 41 -23 102 -57 135 -75 33 -18 119 -66 190
-105 72 -40 150 -84 175 -98 25 -13 164 -90 309 -171 257 -143 301 -160 301
-121 0 8 -156 249 -347 537 -190 288 -485 732 -654 988 -170 256 -313 472
-319 480 -6 8 -150 227 -322 485 -171 259 -424 641 -563 850 -138 209 -408
616 -600 905 -191 289 -352 528 -359 532 -6 4 -16 8 -21 8 -6 0 -60 -75 -121
-167z"/>
<path d="M3380 2244 c-63 -31 -142 -69 -175 -84 -33 -15 -145 -69 -248 -119
-104 -50 -190 -91 -191 -91 -2 0 -88 -41 -192 -91 -104 -50 -220 -106 -259
-124 -38 -18 -135 -64 -215 -102 -80 -39 -194 -94 -255 -123 -60 -29 -162 -77
-225 -107 -63 -30 -171 -82 -240 -115 -69 -34 -161 -77 -205 -98 -44 -21 -134
-63 -200 -95 -66 -31 -176 -84 -245 -117 -69 -33 -177 -85 -240 -115 -63 -31
-169 -81 -235 -113 -250 -119 -255 -121 -255 -141 0 -11 9 -21 23 -24 12 -3
1586 -4 3497 -3 l3475 3 3 22 c4 24 8 21 -343 188 -49 23 -157 75 -240 115
-82 40 -186 89 -230 110 -44 21 -138 66 -210 100 -71 34 -175 84 -230 110
-481 229 -742 354 -954 456 -107 52 -195 94 -196 94 -2 0 -96 45 -210 100
-114 55 -208 100 -210 100 -2 0 -96 45 -210 100 -114 55 -228 110 -253 121
-26 12 -77 36 -114 54 -36 18 -75 36 -85 39 -11 3 -64 -17 -133 -50z"/>
</g>
</svg>
