<?xml version="1.0" standalone="no"?>
<!DOCTYPE svg PUBLIC "-//W3C//DTD SVG 20010904//EN"
 "http://www.w3.org/TR/2001/REC-SVG-20010904/DTD/svg10.dtd">
<svg version="1.0" xmlns="http://www.w3.org/2000/svg"
 width="700.000000pt" height="700.000000pt" viewBox="0 0 700.000000 700.000000"
 preserveAspectRatio="xMidYMid meet">
<metadata>
Created by potrace 1.11, written by Peter Selinger 2001-2013
</metadata>
<g transform="translate(0.000000,700.000000) scale(0.100000,-0.100000)"
fill="#000000" stroke="none">
<path d="M3279 6996 c-2 -2 -44 -7 -92 -11 -48 -3 -97 -8 -109 -10 -11 -3 -46
-7 -77 -11 -31 -3 -65 -8 -76 -10 -88 -16 -79 -14 -255 -55 -400 -91 -832
-288 -1193 -542 -402 -282 -763 -681 -1017 -1122 -47 -83 -170 -327 -170 -340
0 -3 -9 -24 -20 -48 -57 -123 -157 -435 -186 -582 -2 -11 -10 -54 -19 -95 -29
-147 -36 -199 -52 -370 -15 -164 -8 -592 12 -711 2 -13 6 -46 9 -74 9 -78 23
-156 51 -285 28 -132 117 -417 173 -556 30 -74 135 -290 178 -365 20 -35 45
-80 56 -99 11 -19 29 -47 39 -62 11 -14 19 -29 19 -32 0 -4 5 -12 10 -19 6 -7
40 -55 76 -107 63 -90 205 -271 249 -316 239 -249 326 -329 505 -465 47 -35
87 -67 88 -71 2 -5 8 -8 13 -8 6 0 38 -19 72 -43 185 -129 481 -280 722 -369
109 -40 274 -91 330 -104 6 -1 30 -7 55 -14 25 -7 54 -14 65 -16 11 -2 31 -6
45 -9 255 -53 431 -70 735 -70 270 0 383 9 615 51 1178 213 2184 1037 2623
2149 82 207 161 481 191 655 46 274 51 347 51 665 -1 306 -19 477 -81 755 -28
124 -38 158 -92 325 -244 754 -775 1430 -1464 1864 -54 33 -100 61 -103 61 -3
0 -24 12 -47 26 -66 42 -249 130 -379 184 -282 116 -625 205 -904 235 -33 4
-71 9 -85 12 -30 6 -555 14 -561 9z"/>
</g>
</svg>
